<svg width="16" height="18" viewBox="0 0 16 18" fill="none" xmlns="http://www.w3.org/2000/svg">
<path d="M9.31419 15.8908C9.18307 16.2361 8.95001 16.5334 8.64597 16.7432C8.34193 16.9529 7.98127 17.0653 7.61188 17.0653C7.24249 17.0653 6.88184 16.9529 6.57779 16.7432C6.27375 16.5334 6.0407 16.2361 5.90957 15.8908H9.31419ZM7.6109 1.01982C8.04881 1.01919 8.48562 1.06385 8.91434 1.1531C8.87525 0.834933 8.72114 0.54205 8.48104 0.329649C8.24095 0.117249 7.93146 0 7.6109 0C7.29034 0 6.98085 0.117249 6.74076 0.329649C6.50067 0.54205 6.34655 0.834933 6.30746 1.1531C6.7362 1.06395 7.17299 1.01928 7.6109 1.01982ZM15.2238 14.407C15.2238 14.563 15.1618 14.7125 15.0515 14.8228C14.9413 14.9331 14.7917 14.995 14.6357 14.995H0.588017C0.432065 14.995 0.282501 14.9331 0.172226 14.8228C0.0619516 14.7125 0 14.563 0 14.407C0 14.2511 0.0619516 14.1015 0.172226 13.9912C0.282501 13.8809 0.432065 13.819 0.588017 13.819H1.18583V8.23087C1.19006 6.75401 1.70092 5.32333 2.63309 4.17782C3.56527 3.03232 4.86228 2.24137 6.30746 1.93712C6.7362 1.84797 7.17299 1.80331 7.6109 1.80384C8.04881 1.80321 8.48562 1.84787 8.91434 1.93712C10.3597 2.24132 11.657 3.03219 12.5895 4.17765C13.522 5.32312 14.0332 6.75383 14.0379 8.23087V13.819H14.6259C14.704 13.8177 14.7815 13.8319 14.854 13.8609C14.9265 13.8899 14.9924 13.933 15.0481 13.9877C15.1037 14.0424 15.1479 14.1077 15.1781 14.1797C15.2082 14.2517 15.2238 14.329 15.2238 14.407ZM12.8619 8.23087C12.8605 6.99387 12.423 5.79697 11.6265 4.85057C10.8299 3.90417 9.72525 3.26886 8.50665 3.05632C7.91382 2.95451 7.30798 2.95451 6.71515 3.05632C5.49691 3.26927 4.3927 3.90476 3.59654 4.85112C2.80038 5.79748 2.36322 6.99415 2.36187 8.23087V13.819H12.8619V8.23087Z" fill="#323547"/>
</svg>
