<svg width="22" height="22" viewBox="0 0 22 22" fill="none" xmlns="http://www.w3.org/2000/svg">
<path d="M11.9055 9.40344L11.9055 1.71483C11.905 1.4173 11.7866 1.13211 11.5762 0.921725C11.3658 0.711341 11.0806 0.592921 10.7831 0.592406L10.5188 0.599422C10.2213 0.599936 9.93612 0.718357 9.72574 0.928741C9.51535 1.13913 9.39693 1.42432 9.39642 1.72185L9.4011 9.40111L1.71482 9.40344C1.4173 9.40396 1.1321 9.52238 0.921717 9.73276C0.711333 9.94315 0.592913 10.2283 0.592398 10.5259V10.7831C0.592913 11.0806 0.711333 11.3658 0.921717 11.5762C1.1321 11.7866 1.4173 11.905 1.71482 11.9055L9.4011 11.9079L9.40344 19.5941C9.40578 19.8892 9.52405 20.1716 9.73272 20.3803C9.9414 20.5889 10.2237 20.7072 10.5188 20.7095L10.7784 20.7072C11.0759 20.7067 11.3611 20.5883 11.5715 20.3779C11.7819 20.1675 11.9003 19.8823 11.9008 19.5848L11.9055 11.9055L19.5941 11.9055C19.8916 11.905 20.1768 11.7866 20.3872 11.5762C20.5976 11.3658 20.716 11.0806 20.7165 10.7831V10.5259C20.716 10.2283 20.5976 9.94315 20.3872 9.73276C20.1768 9.52238 19.8916 9.40396 19.5941 9.40344L11.9055 9.40344Z" fill="white"/>
</svg>
