<svg width="13" height="14" viewBox="0 0 13 14" fill="none" xmlns="http://www.w3.org/2000/svg">
<path d="M9.4606 0.859076H3.33449C2.72544 0.85779 2.13476 1.06803 1.66295 1.45403C1.19115 1.84002 0.867368 2.37792 0.746704 2.97621H12.0484C11.9277 2.37792 11.6039 1.84002 11.1321 1.45403C10.6603 1.06803 10.0696 0.85779 9.4606 0.859076Z" fill="#32333E"/>
<path d="M9.98919 4.67999V11.354C9.98869 11.4941 9.93293 11.6283 9.83409 11.7274C9.73524 11.8264 9.60132 11.8823 9.46154 11.8828H3.33448C3.19469 11.8823 3.06077 11.8264 2.96192 11.7274C2.86308 11.6283 2.80732 11.4941 2.80682 11.354V4.67999H0.694305V11.354C0.696566 12.0551 0.975451 12.7268 1.47009 13.2225C1.96473 13.7182 2.63495 13.9977 3.33448 14H9.45677C10.1563 13.9977 10.8265 13.7182 11.3212 13.2225C11.8158 12.7268 12.0947 12.0551 12.0969 11.354V4.67999H9.98919Z" fill="#32333E"/>
<path d="M6.82518 0H5.87274C5.60973 0 5.39651 0.213677 5.39651 0.477262V1.43178C5.39651 1.69537 5.60973 1.90905 5.87274 1.90905H6.82518C7.08819 1.90905 7.3014 1.69537 7.3014 1.43178V0.477262C7.3014 0.213677 7.08819 0 6.82518 0Z" fill="#32333E"/>
</svg>
