<svg width="8" height="5" viewBox="0 0 8 5" fill="none" xmlns="http://www.w3.org/2000/svg">
<path d="M7.79446 0.218036C7.66307 0.0784581 7.48497 5.84978e-05 7.29928 5.84978e-05C7.11358 5.84978e-05 6.93548 0.0784581 6.80409 0.218036L4.00117 3.1994L1.19825 0.218036C1.10031 0.112999 0.975199 0.0413386 0.838843 0.0121799C0.702488 -0.0169787 0.561059 -0.00231686 0.432563 0.0542987C0.304067 0.110914 0.194317 0.206922 0.117287 0.330099C0.0402564 0.453276 -0.00056984 0.598049 6.00872e-06 0.745986C-0.000363363 0.843905 0.0176243 0.940919 0.0529174 1.03136C0.0882104 1.12179 0.1401 1.20384 0.205553 1.27269L3.50366 4.78201C3.63504 4.92159 3.81314 4.99999 3.99884 4.99999C4.18453 4.99999 4.36263 4.92159 4.49402 4.78201L7.79446 1.27269C7.85961 1.20347 7.91129 1.12127 7.94656 1.03079C7.98182 0.940304 7.99997 0.843315 7.99997 0.745365C7.99997 0.647416 7.98182 0.550427 7.94656 0.459944C7.91129 0.369461 7.85961 0.287258 7.79446 0.218036Z" fill="#B5B6C7"/>
</svg>
