<svg width="16" height="15" viewBox="0 0 16 15" fill="none" xmlns="http://www.w3.org/2000/svg">
<path d="M10.0349 0H3.18949C2.59291 0.000716608 2.02098 0.238023 1.59914 0.659865C1.17729 1.08171 0.939987 1.65364 0.93927 2.25022L0.93927 9.09565C0.939985 9.68889 1.17578 10.2577 1.595 10.6774C2.01423 11.0971 2.58272 11.3336 3.17595 11.335H10.0349C10.6286 11.3343 11.1978 11.0982 11.6176 10.6783C12.0374 10.2585 12.2736 9.68935 12.2743 9.09565V2.23668C12.2729 1.64345 12.0364 1.07496 11.6167 0.655734C11.1969 0.236508 10.6282 0.000714738 10.0349 0V0ZM10.4736 4.27298V9.09565C10.474 9.15336 10.4629 9.21056 10.4409 9.26395C10.419 9.31733 10.3867 9.36583 10.3459 9.40664C10.3051 9.44745 10.2566 9.47975 10.2032 9.50166C10.1498 9.52358 10.0926 9.53468 10.0349 9.53432H3.17595C3.05961 9.53432 2.94803 9.48811 2.86576 9.40584C2.7835 9.32357 2.73728 9.212 2.73728 9.09565V2.25022C2.73728 2.19083 2.74898 2.13203 2.7717 2.07717C2.79443 2.0223 2.82774 1.97245 2.86973 1.93046C2.91172 1.88847 2.96157 1.85516 3.01644 1.83243C3.0713 1.80971 3.1301 1.79801 3.18949 1.79801H10.0349C10.1513 1.79801 10.2628 1.84423 10.3451 1.92649C10.4274 2.00876 10.4736 2.12034 10.4736 2.23668V4.27298ZM15.6943 5.32092V11.6437C15.6922 12.3806 15.3979 13.0866 14.8761 13.6068C14.3543 14.1271 13.6475 14.4193 12.9107 14.4193H6.59596C6.07863 14.4187 5.57747 14.239 5.17763 13.9107C4.7778 13.5824 4.50394 13.1259 4.4026 12.6186H12.0983C12.573 12.6186 13.0285 12.4305 13.3649 12.0956C13.7014 11.7607 13.8915 11.3061 13.8936 10.8314V3.12756C14.4007 3.22937 14.857 3.50336 15.1851 3.90309C15.5133 4.30283 15.6932 4.80373 15.6943 5.32092Z" fill="#32333E"/>
</svg>
