<svg width="14" height="14" viewBox="0 0 14 14" fill="none" xmlns="http://www.w3.org/2000/svg">
<path d="M3.73612 9.49912L4.10168 8.1452C4.11111 7.98698 4.17974 7.83811 4.29393 7.72819L11.4129 0.611973C11.6466 0.352025 11.9736 0.195039 12.3226 0.175256C12.6716 0.155472 13.0143 0.274496 13.2759 0.506367C13.5069 0.767817 13.6254 1.10989 13.6056 1.45823C13.5859 1.80657 13.4294 2.13303 13.1703 2.36666L6.04862 9.47746C5.93764 9.59015 5.78938 9.65851 5.63161 9.66971L4.27769 10.0326C4.20595 10.0377 4.13394 10.0275 4.06647 10.0026C3.99899 9.97768 3.93759 9.9387 3.88635 9.88823C3.83511 9.83776 3.79521 9.77696 3.76931 9.70986C3.7434 9.64277 3.73209 9.57093 3.73612 9.49912ZM11.7595 10.9532C11.756 11.0922 11.6993 11.2245 11.601 11.3228C11.5027 11.4211 11.3704 11.4778 11.2314 11.4813H2.98604C2.84473 11.4813 2.70899 11.4261 2.60781 11.3275C2.50662 11.2288 2.44801 11.0945 2.44447 10.9532V2.70785C2.44447 2.56421 2.50153 2.42646 2.6031 2.3249C2.70466 2.22333 2.84241 2.16628 2.98604 2.16628H7.35921L9.52549 0H2.98604C2.26788 0 1.57913 0.28529 1.07131 0.79311C0.563488 1.30093 0.278198 1.98968 0.278198 2.70785L0.278198 10.9532C0.281777 11.6691 0.568647 12.3543 1.07608 12.8592C1.58351 13.3641 2.27022 13.6475 2.98604 13.6475H11.245C11.9585 13.644 12.6417 13.359 13.1462 12.8545C13.6507 12.35 13.9357 11.6667 13.9393 10.9532V4.11051L11.773 6.27679L11.7595 10.9532Z" fill="#32333E"/>
</svg>
