<svg width="15" height="15" viewBox="0 0 15 15" fill="none" xmlns="http://www.w3.org/2000/svg">
<path d="M14.5736 7.12209C14.4577 5.674 12.2566 5.80433 12.2566 7.26111V11.4519C12.2567 11.603 12.1977 11.7482 12.0921 11.8564C11.9866 11.9647 11.843 12.0273 11.6919 12.0311H2.8817C2.7306 12.0273 2.58697 11.9647 2.48145 11.8564C2.37593 11.7482 2.3169 11.603 2.31695 11.4519V7.27559C2.31695 5.82749 0.124536 5.68848 0 7.13947C0 7.21766 0 8.08652 0 8.16471V11.4519C0 11.8322 0.074912 12.2088 0.220459 12.5602C0.366006 12.9116 0.579337 13.2309 0.848273 13.4998C1.39141 14.0429 2.12807 14.3481 2.89618 14.3481H11.7295C12.4951 14.3442 13.2281 14.0374 13.7681 13.4947C14.3081 12.952 14.6113 12.2175 14.6112 11.4519V8.14444C14.5823 8.06914 14.5794 7.19739 14.5736 7.12209ZM10.9273 2.84732C11.1052 3.0284 11.2069 3.2709 11.2112 3.52475C11.2155 3.77859 11.1222 4.0244 10.9505 4.21142C10.8655 4.30362 10.7627 4.37762 10.6483 4.42894C10.5339 4.48027 10.4103 4.50784 10.285 4.51001C10.1596 4.51218 10.0351 4.48888 9.91901 4.44155C9.80292 4.3942 9.69764 4.3238 9.60954 4.23459L8.23385 2.85311V7.89247C8.23385 8.14288 8.13438 8.38303 7.95731 8.56009C7.78025 8.73716 7.5401 8.83663 7.28969 8.83663C7.03929 8.83663 6.79914 8.73716 6.62207 8.56009C6.44501 8.38303 6.34554 8.14288 6.34554 7.89247V2.85601L4.97564 4.23459C4.88754 4.3238 4.78226 4.3942 4.66617 4.44155C4.55007 4.48888 4.42558 4.51218 4.30022 4.51001C4.17486 4.50784 4.05124 4.48027 3.93685 4.42894C3.82246 4.37762 3.71967 4.30362 3.63471 4.21142C3.46329 4.02445 3.36989 3.77898 3.37366 3.52534C3.37742 3.27171 3.47808 3.02912 3.65498 2.84732C3.65498 2.84732 5.25947 1.28049 6.00958 0.631742C6.98849 -0.211048 7.58221 -0.21684 8.59298 0.652015C9.60374 1.52087 10.9273 2.84732 10.9273 2.84732Z" fill="#32333E"/>
</svg>
