<svg width="15" height="15" viewBox="0 0 15 15" fill="none" xmlns="http://www.w3.org/2000/svg">
<path d="M14.5736 7.09565C14.4577 5.64756 12.2566 5.77789 12.2566 7.23467V11.4254C12.2567 11.5766 12.1977 11.7218 12.0921 11.83C11.9866 11.9382 11.843 12.0009 11.6919 12.0047H2.8817C2.7306 12.0009 2.58697 11.9382 2.48145 11.83C2.37593 11.7218 2.3169 11.5766 2.31695 11.4254V7.24915C2.31695 5.80106 0.124536 5.66204 0 7.11303C0 7.19122 0 8.06008 0 8.13828V11.4254C0 11.8058 0.074912 12.1824 0.220459 12.5338C0.366006 12.8851 0.579337 13.2044 0.848273 13.4734C1.39141 14.0165 2.12807 14.3216 2.89618 14.3216H11.7295C12.4951 14.3178 13.2281 14.011 13.7681 13.4683C14.3081 12.9255 14.6113 12.1911 14.6112 11.4254V8.118C14.5823 8.0427 14.5794 7.17095 14.5736 7.09565ZM3.65498 5.98641C3.47808 5.80461 3.37742 5.56203 3.37366 5.30839C3.36989 5.05475 3.46329 4.80928 3.63471 4.62231C3.72005 4.53031 3.82323 4.45667 3.93797 4.40586C4.05271 4.35505 4.17659 4.32815 4.30206 4.3268C4.42754 4.32544 4.55197 4.34966 4.66778 4.39798C4.78359 4.4463 4.88834 4.5177 4.97564 4.60783L6.35712 5.98062V0.944156C6.35712 0.69375 6.4566 0.4536 6.63366 0.276537C6.81072 0.0994733 7.05087 0 7.30128 0C7.55168 0 7.79183 0.0994733 7.9689 0.276537C8.14596 0.4536 8.24543 0.69375 8.24543 0.944156V5.98062L9.60954 4.60783C9.69446 4.51762 9.79672 4.44547 9.91018 4.39571C10.0236 4.34595 10.146 4.31959 10.2699 4.31821C10.3971 4.31734 10.5231 4.3426 10.6402 4.39242C10.7573 4.44223 10.8629 4.51555 10.9505 4.60783C11.1219 4.7948 11.2153 5.04027 11.2115 5.29391C11.2078 5.54755 11.1071 5.79013 10.9302 5.97193C10.9302 5.97193 9.32571 7.54166 8.5756 8.18751C7.59669 9.0303 7.00008 9.03899 5.9922 8.16724C4.98433 7.29549 3.65498 5.98641 3.65498 5.98641Z" fill="#32333E"/>
</svg>
