<svg width="107" height="30" viewBox="0 0 107 30" fill="none" xmlns="http://www.w3.org/2000/svg">
<path d="M43.2009 16.7452C43.1975 16.0025 43.3435 15.2668 43.6305 14.5818C43.9174 13.8967 44.3393 13.2765 44.871 12.758C45.4027 12.2395 46.0333 11.8333 46.7253 11.5637C47.4173 11.2941 48.1565 11.1665 48.8989 11.1886C51.558 11.1886 53.9838 12.778 54.2908 16.1565C54.3496 16.6626 54.0575 16.9337 53.549 16.9337H45.3553C45.2965 18.8995 46.9209 20.3359 49.2166 20.3359C50.2424 20.3466 51.2462 20.038 52.0889 19.4528C52.1657 19.388 52.2547 19.3393 52.3507 19.3095C52.4467 19.2798 52.5477 19.2695 52.6477 19.2794C52.7477 19.2892 52.8447 19.319 52.933 19.367C53.0213 19.415 53.0991 19.4802 53.1618 19.5587L53.3148 19.7234C53.6563 20.0882 53.6563 20.5239 53.1618 20.9242C52.0326 21.8083 50.6301 22.2703 49.1965 22.2304C45.4728 22.2449 43.2009 19.7724 43.2009 16.7452ZM52.1243 15.3326C51.571 13.4488 50.0997 13.0467 48.9339 13.0467C48.1955 13.0067 47.4641 13.2081 46.8503 13.6205C46.2365 14.0329 45.7736 14.6339 45.5316 15.3326H52.1243Z" fill="#5575E5"/>
<path d="M55.3385 21.2423V7.49198C55.3297 7.38823 55.3439 7.28381 55.38 7.18615C55.4161 7.08849 55.4733 6.99999 55.5475 6.92695C55.6217 6.85391 55.7111 6.79811 55.8093 6.76354C55.9075 6.72896 56.0121 6.71645 56.1157 6.7269H56.7516C56.8548 6.71578 56.9592 6.72792 57.057 6.76244C57.1549 6.79695 57.2438 6.85296 57.3172 6.92635C57.3906 6.99974 57.4466 7.08865 57.4811 7.18653C57.5157 7.28441 57.5278 7.38879 57.5167 7.49198V21.2423C57.5278 21.3455 57.5157 21.4499 57.4811 21.5478C57.4466 21.6457 57.3906 21.7346 57.3172 21.8079C57.2438 21.8813 57.1549 21.9373 57.057 21.9719C56.9592 22.0064 56.8548 22.0185 56.7516 22.0074H56.1157C56.012 22.0188 55.9069 22.0069 55.8083 21.9727C55.7096 21.9385 55.6198 21.8827 55.5454 21.8094C55.471 21.7362 55.4139 21.6473 55.3781 21.5492C55.3423 21.4511 55.3288 21.3463 55.3385 21.2423Z" fill="#5575E5"/>
<path d="M58.4698 16.7452C58.4663 16.0025 58.6124 15.2668 58.8993 14.5818C59.1862 13.8967 59.6081 13.2765 60.1398 12.758C60.6715 12.2395 61.3021 11.8333 61.9941 11.5637C62.6861 11.2941 63.4253 11.1665 64.1677 11.1886C66.8268 11.1886 69.2526 12.778 69.5596 16.1565C69.6184 16.6626 69.3264 16.9337 68.8179 16.9337H60.6241C60.5653 18.8995 62.1897 20.3359 64.4854 20.3359C65.5112 20.3466 66.515 20.038 67.3577 19.4528C67.4345 19.388 67.5236 19.3393 67.6196 19.3095C67.7155 19.2798 67.8165 19.2695 67.9165 19.2794C68.0165 19.2892 68.1135 19.319 68.2018 19.367C68.2901 19.415 68.3679 19.4802 68.4306 19.5587L68.5837 19.7234C68.9251 20.0882 68.9251 20.5239 68.4306 20.9242C67.3014 21.8083 65.8989 22.2703 64.4653 22.2304C60.7416 22.2449 58.4698 19.7724 58.4698 16.7452ZM67.4053 15.3326C66.852 13.4488 65.3806 13.0467 64.2148 13.0467C63.4764 13.0067 62.7451 13.2081 62.1313 13.6205C61.5175 14.0329 61.0546 14.6339 60.8126 15.3326H67.4053Z" fill="#5575E5"/>
<path d="M70.2542 16.8278C70.2542 13.7199 72.3852 11.1886 76.2111 11.1886C77.3337 11.1858 78.4361 11.4867 79.4015 12.0596C79.4998 12.1043 79.5859 12.1719 79.6528 12.2566C79.7197 12.3413 79.7654 12.4408 79.7861 12.5467C79.8068 12.6527 79.8019 12.762 79.7719 12.8657C79.7418 12.9694 79.6875 13.0644 79.6133 13.1428L79.4486 13.3546C79.3947 13.4419 79.3233 13.5172 79.2389 13.5756C79.1545 13.6341 79.059 13.6745 78.9583 13.6944C78.8576 13.7143 78.7539 13.7132 78.6537 13.6911C78.5534 13.6691 78.4588 13.6267 78.3757 13.5664C77.7355 13.2631 77.0357 13.1062 76.3272 13.1074C74.0903 13.1074 72.4422 14.5909 72.4422 16.7214C72.4422 18.852 74.0903 20.3602 76.3272 20.3602C77.035 20.3551 77.7334 20.1986 78.3757 19.9011C78.4576 19.8377 78.5522 19.7925 78.653 19.7687C78.7539 19.7449 78.8587 19.7429 78.9604 19.763C79.062 19.783 79.1582 19.8247 79.2424 19.885C79.3267 19.9454 79.397 20.0231 79.4486 20.1129L79.6017 20.3247C79.896 20.725 79.7547 21.2312 79.0717 21.5726C78.1936 22.0349 77.2151 22.2735 76.2227 22.2673C72.4673 22.2449 70.2542 19.8531 70.2542 16.8278Z" fill="#5575E5"/>
<path d="M82.2267 18.6523V13.1195H80.9317C80.8728 13.1239 80.8138 13.1152 80.7587 13.0939C80.7037 13.0727 80.654 13.0394 80.6135 12.9966C80.5729 12.9537 80.5424 12.9023 80.5241 12.8462C80.5059 12.7901 80.5004 12.7306 80.5081 12.6721V11.8478C80.5019 11.7906 80.5086 11.7328 80.5277 11.6786C80.5468 11.6244 80.5778 11.5752 80.6184 11.5345C80.6591 11.4939 80.7083 11.4629 80.7625 11.4438C80.8168 11.4247 80.8745 11.418 80.9317 11.4242H82.2622L82.6391 8.99834C82.642 8.91377 82.6617 8.83062 82.6971 8.75379C82.7326 8.67697 82.7831 8.60801 82.8456 8.55098C82.9081 8.49395 82.9814 8.44999 83.0611 8.42171C83.1409 8.39342 83.2255 8.38138 83.3099 8.38628H83.7573C83.8443 8.38061 83.9315 8.39398 84.0128 8.42544C84.0941 8.45689 84.1676 8.50569 84.2281 8.56844C84.2886 8.63118 84.3347 8.70636 84.3632 8.78874C84.3917 8.87112 84.402 8.95872 84.3932 9.04546V11.4246H87.2893C87.3464 11.4185 87.4042 11.4252 87.4584 11.4443C87.5126 11.4634 87.5619 11.4944 87.6025 11.535C87.6432 11.5756 87.6742 11.6249 87.6933 11.6791C87.7124 11.7333 87.719 11.7911 87.7129 11.8482V12.6721C87.7195 12.7304 87.7133 12.7895 87.6947 12.8451C87.6761 12.9008 87.6456 12.9517 87.6052 12.9944C87.5648 13.037 87.5156 13.0703 87.4611 13.0919C87.4065 13.1135 87.3478 13.1229 87.2893 13.1195H84.3932V18.782C84.3932 19.924 84.9465 20.3714 85.6178 20.3714C85.7767 20.3874 85.9371 20.3697 86.0887 20.3194C86.2403 20.2692 86.3795 20.1874 86.4973 20.0796C86.6151 19.9718 86.7088 19.8404 86.7723 19.6938C86.8358 19.5473 86.8676 19.389 86.8657 19.2293C86.8692 19.0944 86.8535 18.9596 86.819 18.8291C86.7724 18.5347 86.9016 18.3462 87.196 18.3462H88.1728C88.2296 18.3374 88.2875 18.3403 88.3431 18.3547C88.3986 18.3691 88.4506 18.3948 88.4959 18.4301C88.5412 18.4655 88.5787 18.5097 88.6062 18.5601C88.6336 18.6105 88.6505 18.666 88.6557 18.7232C88.7088 18.9789 88.7365 19.2392 88.7382 19.5004C88.7382 21.0898 87.5962 22.2435 85.5716 22.2435C83.8987 22.2421 82.2267 21.372 82.2267 18.6523Z" fill="#5575E5"/>
<path d="M89.7846 21.2423V12.1776C89.7758 12.0739 89.7899 11.9694 89.826 11.8718C89.8622 11.7741 89.9194 11.6856 89.9936 11.6126C90.0678 11.5395 90.1572 11.4837 90.2554 11.4492C90.3536 11.4146 90.4582 11.4021 90.5618 11.4125H91.1977C91.3009 11.4014 91.4052 11.4135 91.5031 11.4481C91.601 11.4826 91.6899 11.5386 91.7633 11.612C91.8367 11.6854 91.8927 11.7743 91.9272 11.8722C91.9617 11.97 91.9739 12.0744 91.9627 12.1776V13.7787C92.3159 12.0834 93.5283 11.1769 94.7879 11.1769L95.247 11.2003C95.6943 11.259 95.7531 11.6239 95.7531 12.0479V12.6604C95.7531 13.1904 95.5413 13.4022 95.1882 13.3196C95.003 13.2768 94.8133 13.2571 94.6232 13.2608C93.8582 13.2608 91.9641 13.6378 91.9641 17.9698V21.2423C91.9753 21.3455 91.9631 21.4499 91.9286 21.5478C91.8941 21.6457 91.8381 21.7346 91.7647 21.808C91.6913 21.8813 91.6024 21.9374 91.5045 21.9719C91.4066 22.0064 91.3023 22.0185 91.1991 22.0074H90.5632C90.4593 22.0191 90.3541 22.0075 90.2552 21.9734C90.1563 21.9393 90.0664 21.8836 89.9918 21.8103C89.9172 21.737 89.8599 21.6479 89.824 21.5497C89.7882 21.4515 89.7747 21.3464 89.7846 21.2423Z" fill="#5575E5"/>
<path d="M95.8002 16.7098C95.8002 13.6723 97.8958 11.2003 101.039 11.2003C101.778 11.1704 102.512 11.3286 103.173 11.6602C103.834 11.9917 104.4 12.4856 104.818 13.0957V12.1893C104.809 12.0855 104.823 11.9811 104.859 11.8835C104.895 11.7858 104.953 11.6973 105.027 11.6243C105.101 11.5512 105.19 11.4954 105.289 11.4608C105.387 11.4263 105.491 11.4138 105.595 11.4242H106.231C106.334 11.4131 106.438 11.4252 106.536 11.4597C106.634 11.4943 106.723 11.5503 106.797 11.6237C106.87 11.6971 106.926 11.786 106.96 11.8838C106.995 11.9817 107.007 12.0861 106.996 12.1893V21.254C107.007 21.3572 106.995 21.4616 106.96 21.5595C106.926 21.6573 106.87 21.7462 106.797 21.8196C106.723 21.893 106.634 21.949 106.536 21.9836C106.438 22.0181 106.334 22.0302 106.231 22.0191H105.597C105.493 22.0305 105.388 22.0186 105.289 21.9844C105.191 21.9502 105.101 21.8944 105.027 21.8211C104.952 21.7479 104.895 21.659 104.859 21.5609C104.823 21.4628 104.81 21.358 104.82 21.254V20.3476C104.402 20.9577 103.836 21.4516 103.175 21.7831C102.514 22.1147 101.78 22.2729 101.041 22.243C97.8958 22.243 95.8002 19.7472 95.8002 16.7098ZM104.865 16.7098C104.841 14.6142 103.429 13.071 101.333 13.071C99.202 13.071 97.9779 14.7425 97.9779 16.7098C97.9779 18.6994 99.2025 20.3485 101.333 20.3485C103.429 20.3359 104.842 18.7937 104.865 16.7098Z" fill="#5575E5"/>
<path d="M40.7794 7.13931L23.7565 20.3242C23.6791 20.39 23.5893 20.4396 23.4924 20.4699C23.3955 20.5003 23.2935 20.5108 23.1924 20.5009C23.0914 20.491 22.9933 20.4609 22.9041 20.4124C22.8149 20.3638 22.7364 20.2979 22.6732 20.2183L19.0004 15.592C18.9037 15.4695 18.7714 15.3799 18.6217 15.3357C18.472 15.2914 18.3123 15.2946 18.1644 15.3447L0.329342 21.3487C0.271449 21.3684 0.208334 21.3661 0.152019 21.3423C0.0957035 21.3184 0.0501224 21.2747 0.0239567 21.2194C-0.00220901 21.1642 -0.00713124 21.1012 0.0101275 21.0425C0.0273862 20.9839 0.0656202 20.9336 0.117547 20.9013L19.3065 8.92837C19.4652 8.82745 19.6559 8.78963 19.8411 8.82235C20.0264 8.85508 20.1926 8.95598 20.3071 9.10517L23.7565 13.6023C23.8656 13.7435 24.0207 13.842 24.1949 13.8807C24.3691 13.9194 24.5514 13.8959 24.71 13.8141L40.5088 6.73904C40.5618 6.70988 40.6238 6.70158 40.6826 6.71577C40.7414 6.72996 40.7928 6.76561 40.8267 6.81573C40.8606 6.86586 40.8745 6.92683 40.8658 6.98669C40.857 7.04655 40.8262 7.10098 40.7794 7.13931ZM6.42708 15.2384L11.3254 12.1893C11.5024 12.0815 11.6359 11.9148 11.7024 11.7186C12.3 10.0245 13.3636 8.53349 14.7709 7.41697C16.1781 6.30045 17.8719 5.60375 19.6575 5.40697C21.4431 5.2102 23.248 5.52134 24.8646 6.30462C26.4812 7.08791 27.844 8.31152 28.7962 9.83479C28.8783 9.96134 29.0029 10.0544 29.1475 10.0972C29.2922 10.1399 29.4473 10.1296 29.585 10.068L33.3876 8.36109C33.4605 8.32757 33.5257 8.27943 33.5793 8.21967C33.6328 8.15991 33.6736 8.08979 33.6989 8.01365C33.7243 7.93752 33.7337 7.85699 33.7267 7.77705C33.7197 7.6971 33.6964 7.61945 33.6581 7.5489C32.0369 4.68771 29.514 2.44377 26.4832 1.16732C23.4524 -0.109122 20.0844 -0.34625 16.9046 0.492952C13.7249 1.33215 10.9125 3.20046 8.90634 5.80627C6.90019 8.41208 5.8132 11.6088 5.81502 14.8973C5.81462 14.9689 5.83345 15.0393 5.86955 15.1011C5.90565 15.163 5.95768 15.214 6.02022 15.2488C6.08276 15.2837 6.15351 15.3011 6.22508 15.2992C6.29665 15.2974 6.36641 15.2764 6.42708 15.2384ZM34.0444 20.0299H29.2188C29.0777 20.0307 28.9389 20.0654 28.814 20.131C28.6891 20.1966 28.5817 20.2912 28.5009 20.4068C27.569 21.7264 26.3174 22.7877 24.8633 23.4912C23.4091 24.1948 21.8002 24.5176 20.1872 24.4293C18.5742 24.341 17.01 23.8446 15.6414 22.9866C14.2727 22.1286 13.1443 20.937 12.362 19.5237C12.2915 19.3965 12.179 19.2976 12.0438 19.2439C11.9085 19.1903 11.7589 19.1851 11.6203 19.2293L7.59428 20.5822C7.52329 20.6063 7.45811 20.645 7.40294 20.6957C7.34776 20.7465 7.3038 20.8082 7.27389 20.877C7.24398 20.9457 7.22876 21.02 7.22923 21.0949C7.22969 21.1699 7.24583 21.2439 7.27659 21.3123C8.51524 23.908 10.4792 26.0894 12.9312 27.5927C15.3831 29.096 18.218 29.857 21.0932 29.7835C23.9684 29.71 26.7607 28.8053 29.1327 27.1787C31.5046 25.5521 33.3547 23.2733 34.4591 20.6177C34.4833 20.5513 34.491 20.4801 34.4817 20.4102C34.4724 20.3402 34.4463 20.2735 34.4057 20.2158C34.365 20.158 34.311 20.111 34.2483 20.0786C34.1856 20.0463 34.1159 20.0295 34.0453 20.0299H34.0444Z" fill="#5575E5"/>
</svg>
