<svg width="15" height="14" viewBox="0 0 15 14" fill="none" xmlns="http://www.w3.org/2000/svg">
<path d="M11.5839 13.6475H3.33849C2.62267 13.6475 1.93596 13.3641 1.42853 12.8592C0.921094 12.3543 0.634225 11.6691 0.630646 10.9532L0.630646 2.70785C0.630646 1.98968 0.915936 1.30093 1.42376 0.79311C1.93157 0.28529 2.62033 0 3.33849 0L11.5839 0C12.2997 0.00357913 12.985 0.290448 13.4899 0.797881C13.9948 1.30531 14.2782 1.99202 14.2782 2.70785V10.9668C14.2711 11.6779 13.9845 12.3577 13.4804 12.8593C12.9763 13.3609 12.295 13.644 11.5839 13.6475ZM3.33849 2.16628C3.19486 2.16628 3.05711 2.22333 2.95554 2.3249C2.85398 2.42646 2.79692 2.56421 2.79692 2.70785V10.9532C2.80045 11.0945 2.85907 11.2288 2.96025 11.3275C3.06144 11.4261 3.19717 11.4813 3.33849 11.4813H11.5974C11.7364 11.4778 11.8687 11.4211 11.967 11.3228C12.0653 11.2245 12.122 11.0922 12.1254 10.9532V2.70785C12.1254 2.56421 12.0684 2.42646 11.9668 2.3249C11.8653 2.22333 11.7275 2.16628 11.5839 2.16628H3.33849Z" fill="#32333E"/>
</svg>
