<svg width="14" height="14" viewBox="0 0 14 14" fill="none" xmlns="http://www.w3.org/2000/svg">
<path d="M2.56521 14C1.88461 13.9979 1.23255 13.7263 0.751774 13.2446C0.271 12.7629 0.000682298 12.1104 0 11.4298L0 2.56636C0.000208223 2.12885 0.112221 1.69865 0.325408 1.31658C0.538595 0.934512 0.845885 0.613253 1.21812 0.383289C1.59035 0.153325 2.01518 0.0222832 2.45228 0.00260007C2.88939 -0.017083 3.32428 0.0752451 3.71567 0.270823L12.5799 4.70126C13.0066 4.91444 13.3655 5.24225 13.6163 5.64793C13.8671 6.05362 14 6.52114 14 6.99809C14 7.47504 13.8671 7.94257 13.6163 8.34825C13.3655 8.75394 13.0066 9.08174 12.5799 9.29492L3.71567 13.728C3.35873 13.9073 2.9647 14.0005 2.56521 14ZM2.56521 2.08186C2.47357 2.08256 2.3839 2.10857 2.3061 2.157C2.23544 2.19957 2.17689 2.25957 2.13606 2.33124C2.09523 2.40292 2.07348 2.48387 2.0729 2.56636V11.4298C2.07362 11.5138 2.09559 11.5962 2.13676 11.6694C2.17793 11.7426 2.23697 11.8042 2.30836 11.8484C2.37975 11.8927 2.46118 11.9181 2.54506 11.9224C2.62894 11.9266 2.71253 11.9096 2.78805 11.8729L11.6601 7.43984C11.7426 7.39925 11.8121 7.33636 11.8607 7.25828C11.9094 7.1802 11.9351 7.09007 11.9351 6.99809C11.9351 6.90612 11.9094 6.81598 11.8607 6.73791C11.8121 6.65983 11.7426 6.59693 11.6601 6.55634L2.78805 2.12332C2.71987 2.08828 2.64446 2.06965 2.56781 2.06891L2.56521 2.08186Z" fill="#32333E"/>
</svg>
