<svg width="21" height="18" viewBox="0 0 21 18" fill="none" xmlns="http://www.w3.org/2000/svg">
<path d="M16.1888 5.65489L15.2471 6.59868C15.5506 7.31445 15.7048 8.08466 15.7002 8.86211C15.7117 9.625 15.5649 10.382 15.2691 11.0853C14.9733 11.7886 14.535 12.423 13.9817 12.9484C13.8827 13.0305 13.8113 13.141 13.7773 13.2651C13.7433 13.3892 13.7483 13.5207 13.7916 13.6418C13.8349 13.7629 13.9145 13.8677 14.0195 13.942C14.1245 14.0164 14.2498 14.0565 14.3785 14.0571C14.5231 14.057 14.6633 14.0069 14.7752 13.9152C15.4725 13.272 16.0267 12.4894 16.4019 11.6181C16.7771 10.7469 16.9648 9.80647 16.953 8.85793C16.9588 7.74442 16.6967 6.64583 16.1888 5.65489Z" fill="#323547"/>
<path d="M10.9826 15.3457C11.0025 15.316 11.0129 15.281 11.0125 15.2452V10.8332L12.2654 9.5804V15.6796C12.2652 15.9292 12.1904 16.1732 12.0507 16.3801C11.9109 16.587 11.7125 16.7474 11.4809 16.8407C11.2494 16.9341 10.9952 16.9561 10.751 16.904C10.5068 16.8518 10.2838 16.7279 10.1105 16.5482L7.75102 14.0947L8.63635 13.2178L10.7056 15.3684C10.73 15.3945 10.7618 15.4126 10.7967 15.4203C10.8316 15.428 10.868 15.4251 10.9012 15.4117C10.9343 15.3984 10.9627 15.3754 10.9826 15.3457Z" fill="#323547"/>
<path d="M2.39521 11.1193C2.3492 11.1193 2.30498 11.1015 2.27187 11.0695C2.23876 11.0376 2.21935 10.994 2.21773 10.9481V6.77199C2.21773 6.74868 2.22232 6.7256 2.23124 6.70407C2.24016 6.68253 2.25323 6.66297 2.26971 6.64649C2.28619 6.63001 2.30576 6.61693 2.32729 6.60801C2.34882 6.59909 2.3719 6.5945 2.39521 6.5945H6.55667C6.58082 6.59486 6.60479 6.59022 6.62707 6.58088C6.64934 6.57153 6.66945 6.55769 6.68613 6.54021L10.7077 2.36414C10.7323 2.33881 10.7638 2.32138 10.7984 2.31409C10.8329 2.30679 10.8688 2.30996 10.9016 2.32319C10.9343 2.33641 10.9623 2.35909 10.9821 2.38833C11.0019 2.41757 11.0125 2.45204 11.0125 2.48733V6.10799L12.2654 4.85517V2.03632C12.2652 1.78664 12.1904 1.5427 12.0507 1.33581C11.9109 1.12891 11.7125 0.968499 11.4809 0.875151C11.2494 0.781803 10.9952 0.759779 10.751 0.811903C10.5068 0.864028 10.2838 0.987925 10.1105 1.16769L6.09939 5.34377H2.21773C1.88546 5.34377 1.5668 5.47576 1.33185 5.71071C1.0969 5.94566 0.964905 6.26432 0.964905 6.59659L0.964905 11.1255C0.964905 11.4578 1.0969 11.7765 1.33185 12.0114C1.5668 12.2464 1.88546 12.3784 2.21773 12.3784H4.74216L5.99499 11.1255L2.39521 11.1193Z" fill="#323547"/>
<path d="M18.6589 3.18474L17.7506 4.09512C18.7166 5.49602 19.2363 7.1563 19.2415 8.85793C19.2415 13.2658 15.8213 15.7067 15.7858 15.7297C15.6764 15.806 15.5943 15.9152 15.5513 16.0415C15.5084 16.1677 15.5068 16.3043 15.5469 16.4315C15.5869 16.5587 15.6665 16.6698 15.7741 16.7486C15.8817 16.8274 16.0116 16.8699 16.1449 16.8697C16.2717 16.8696 16.3955 16.831 16.4999 16.7591C16.6628 16.6463 20.4943 13.9381 20.4943 8.85793C20.4951 6.82079 19.8528 4.83538 18.6589 3.18474Z" fill="#323547"/>
<path d="M3.57913 16.8321L19.3396 1.07164C19.457 0.953136 19.5226 0.792843 19.5218 0.626028C19.521 0.459214 19.454 0.299543 19.3355 0.182141C19.2169 0.0647394 19.0567 -0.000776224 18.8898 6.94143e-06C18.723 0.000790107 18.5634 0.0678079 18.446 0.186317L2.6938 15.9364C2.63553 15.9945 2.58928 16.0635 2.5577 16.1396C2.52611 16.2156 2.5098 16.297 2.50971 16.3794C2.50961 16.4617 2.52572 16.5432 2.55713 16.6193C2.58854 16.6953 2.63463 16.7645 2.69276 16.8228C2.75089 16.881 2.81993 16.9273 2.89593 16.9589C2.97194 16.9904 3.05342 17.0068 3.13573 17.0068C3.21803 17.0069 3.29955 16.9908 3.37563 16.9594C3.45171 16.928 3.52086 16.8819 3.57913 16.8238V16.8321Z" fill="#FF6D6D"/>
</svg>
